<!DOCTYPE svg PUBLIC "-//W3C//DTD SVG 1.1//EN" "http://www.w3.org/Graphics/SVG/1.1/DTD/svg11.dtd">
<!-- Uploaded to: SVG Repo, www.svgrepo.com, Transformed by: SVG Repo Mixer Tools -->
<svg fill="#f26f27" height="800px" width="800px" version="1.1" id="Layer_1" xmlns="http://www.w3.org/2000/svg" xmlns:xlink="http://www.w3.org/1999/xlink" viewBox="0 0 512.00 512.00" xml:space="preserve" stroke="#f26f27" stroke-width="0.00512">
<g id="SVGRepo_bgCarrier" stroke-width="0"/>
<g id="SVGRepo_tracerCarrier" stroke-linecap="round" stroke-linejoin="round"/>
<g id="SVGRepo_iconCarrier"> <g> <g> <path d="M510.522,249.107l-46.81-103.817c11.946-10.507,19.506-25.889,19.506-43.012c0-31.591-25.701-57.294-57.294-57.294 c-21.024,0-39.428,11.391-49.396,28.316L272.209,48.504v-15.53c0-9.261-7.508-16.769-16.769-16.769 c-9.261,0-16.769,7.508-16.769,16.769v15.549L135.427,73.226c-9.978-16.885-28.36-28.242-49.353-28.242 c-31.593,0-57.294,25.702-57.294,57.294c0,17.122,7.559,32.504,19.506,43.012L1.477,249.107c-1.013,2.252-1.542,4.805-1.471,7.339 c0.243,47.259,38.754,85.633,86.069,85.633c47.315,0,85.825-38.374,86.069-85.633c0.07-2.524-0.451-5.072-1.471-7.339 l-46.81-103.817c11.11-9.773,18.416-23.764,19.384-39.449l95.425-22.833v346.83h-60.368c-9.261,0-16.769,7.508-16.769,16.769 c0,7.151,4.484,13.24,10.788,15.651h-18.055c-9.261,0-16.769,7.508-16.769,16.769c0,9.261,7.508,16.769,16.769,16.769h202.345 c9.261,0,16.769-7.508,16.769-16.769c0-9.261-7.508-16.769-16.769-16.769h-18.055c6.303-2.411,10.788-8.5,10.788-15.651 c0-9.261-7.508-16.769-16.769-16.769H272.21V82.976l96.55,22.95c0.989,15.651,8.287,29.609,19.377,39.364l-46.81,103.817 c-1.007,2.239-1.543,4.766-1.471,7.339c0.243,47.259,38.754,85.633,86.069,85.633s85.825-38.374,86.069-85.633 C512.064,253.884,511.531,251.35,510.522,249.107z M86.074,78.522c13.099,0,23.756,10.657,23.756,23.756 c0,13.149-10.791,23.962-24.166,23.735c-13.021-0.227-23.346-10.87-23.346-23.735C62.318,89.179,72.977,78.522,86.074,78.522z M86.074,308.542c-23.112,0-42.785-14.998-49.799-35.774h99.598C128.861,293.544,109.186,308.542,86.074,308.542z M129.431,239.232H42.719L78.84,159.12c1.118,0.141,4.374,0.452,7.235,0.452c2.484,0,5.428-0.224,7.234-0.452L129.431,239.232z M425.924,78.522c13.099,0,23.756,10.657,23.756,23.756c0,12.861-10.32,23.508-23.346,23.735 c-13.367,0.226-24.166-10.579-24.166-23.735C402.168,89.179,412.826,78.522,425.924,78.522z M418.69,159.12 c1.87,0.236,4.838,0.452,7.235,0.452c2.375,0,5.346-0.214,7.235-0.452l36.121,80.112H382.57L418.69,159.12z M425.924,308.542 c-23.112,0-42.785-14.998-49.799-35.774h99.598C468.71,293.544,449.036,308.542,425.924,308.542z"/> </g> </g> </g>
</svg>